<?xml version="1.0" standalone="no"?>
<!DOCTYPE svg PUBLIC "-//W3C//DTD SVG 20010904//EN"
 "http://www.w3.org/TR/2001/REC-SVG-20010904/DTD/svg10.dtd">
<svg version="1.0" xmlns="http://www.w3.org/2000/svg"
 width="1024.000000pt" height="1024.000000pt" viewBox="0 0 1024.000000 1024.000000"
 preserveAspectRatio="xMidYMid meet">
<metadata>
Created by potrace 1.14, written by Peter Selinger 2001-2017
</metadata>
<g transform="translate(0.000000,1024.000000) scale(0.100000,-0.100000)"
fill="#000000" stroke="none">
<path d="M4852 10209 c-921 -50 -1759 -324 -2526 -826 -490 -321 -942 -745
-1288 -1208 -505 -677 -836 -1467 -958 -2285 -40 -269 -53 -455 -53 -755 0
-481 50 -874 168 -1315 436 -1631 1671 -2956 3264 -3501 549 -188 1054 -271
1641 -272 283 0 444 10 705 44 796 105 1589 422 2266 905 1166 833 1932 2137
2093 3564 53 464 39 950 -40 1422 -150 903 -563 1776 -1171 2476 -200 230
-483 497 -742 700 -131 103 -436 306 -596 397 -592 337 -1268 556 -1945 630
-290 31 -548 39 -818 24z m558 -461 c1441 -94 2747 -851 3557 -2063 671 -1004
921 -2264 684 -3445 -78 -384 -179 -698 -338 -1045 -56 -123 -89 -187 -166
-325 -257 -463 -640 -925 -1062 -1281 -1061 -895 -2473 -1263 -3845 -1003
-1766 334 -3196 1694 -3624 3442 -154 629 -172 1344 -50 1977 257 1332 1088
2485 2279 3160 766 435 1673 642 2565 583z"/>
<path d="M4965 9200 c-33 -4 -127 -13 -210 -20 -537 -42 -1088 -207 -1575
-470 -136 -73 -311 -179 -387 -235 -23 -16 -72 -52 -110 -80 -279 -203 -601
-521 -813 -803 -399 -533 -642 -1086 -764 -1742 -49 -267 -80 -585 -74 -770 7
-208 40 -500 83 -735 26 -145 106 -445 135 -505 4 -9 11 -31 15 -50 4 -19 11
-39 15 -45 3 -5 17 -39 30 -75 13 -36 26 -69 30 -75 4 -5 19 -41 34 -80 32
-85 157 -334 216 -430 23 -38 50 -83 60 -100 14 -26 77 -122 130 -199 47 -69
172 -232 189 -246 3 -3 28 -32 56 -65 27 -33 97 -109 155 -168 57 -60 107
-112 110 -115 9 -13 164 -147 250 -218 257 -211 637 -445 905 -558 96 -40 310
-126 325 -131 42 -12 180 -57 195 -64 29 -12 224 -58 345 -81 370 -69 743
-100 977 -81 466 38 838 110 1153 223 143 51 155 56 211 81 30 13 56 24 59 25
28 6 205 93 382 187 388 206 832 573 1127 930 168 203 150 179 265 351 110
164 179 283 261 449 28 55 52 102 55 105 8 8 67 154 125 310 137 367 206 695
252 1187 17 176 5 448 -32 738 -210 1647 -1412 3012 -3014 3421 -212 54 -469
99 -656 114 -77 6 -179 15 -226 20 -97 11 -196 11 -284 0z m-389 -1948 c103
-152 257 -380 342 -507 85 -126 160 -236 167 -244 13 -13 100 111 590 844
l121 180 847 3 c595 1 847 -1 847 -9 0 -10 -76 -125 -423 -639 -84 -124 -273
-405 -421 -625 -148 -220 -317 -470 -374 -555 -150 -221 -344 -508 -527 -780
-87 -129 -205 -302 -260 -385 l-102 -150 141 -208 c78 -115 148 -219 156 -231
448 -668 401 -606 463 -606 29 0 147 -1 264 -3 116 -1 214 1 218 4 5 6 -107
177 -424 644 -331 488 -431 638 -431 644 0 11 277 415 286 418 5 1 91 -120
191 -270 211 -316 647 -964 818 -1217 65 -96 160 -238 211 -315 51 -77 109
-162 129 -190 20 -27 54 -77 76 -110 56 -85 69 -106 91 -138 11 -16 17 -31 14
-34 -3 -3 -384 -6 -846 -6 l-841 0 -17 24 c-16 21 -154 226 -580 857 -86 128
-163 243 -169 256 -26 48 -40 51 -65 13 -47 -71 -241 -358 -353 -522 -63 -93
-180 -267 -259 -385 -78 -118 -150 -221 -160 -229 -13 -11 -156 -14 -851 -15
-458 0 -837 3 -841 6 -4 4 25 54 63 110 90 133 569 843 782 1158 400 594 447
665 473 706 15 24 58 87 95 141 37 54 103 151 147 215 l78 118 -133 197 c-72
109 -191 286 -264 393 -72 107 -282 418 -465 690 -184 272 -410 608 -503 745
-94 138 -172 258 -175 267 -4 17 41 18 841 18 l846 0 187 -278z"/>
<path d="M5863 6763 c-71 -104 -181 -264 -243 -358 -62 -93 -138 -205 -167
-248 -30 -43 -57 -85 -60 -94 -4 -9 47 -93 128 -214 l134 -199 20 27 c11 15
105 153 209 307 104 155 281 418 395 586 113 167 216 321 229 342 l23 38 -269
0 -270 0 -129 -187z"/>
<path d="M3713 6863 c29 -43 157 -231 282 -418 126 -187 294 -437 373 -555 79
-118 149 -220 156 -227 8 -9 29 16 86 102 41 63 80 115 86 115 6 0 36 -37 66
-82 29 -46 91 -138 137 -206 50 -74 80 -129 77 -138 -3 -8 -43 -69 -88 -135
-46 -66 -94 -138 -108 -159 -32 -51 -254 -380 -465 -690 -92 -135 -201 -297
-244 -360 -153 -229 -415 -617 -468 -692 l-54 -78 278 0 278 0 57 88 c32 48
108 162 170 254 299 443 468 696 468 702 0 4 -34 59 -75 122 -41 63 -75 119
-75 125 0 5 53 87 117 182 64 95 126 186 138 204 11 18 23 31 27 30 4 -1 40
-51 81 -111 40 -61 78 -111 83 -112 5 -2 68 87 141 197 l131 199 -132 198
c-73 108 -202 298 -285 422 -227 335 -384 568 -406 604 -11 17 -91 136 -178
264 l-159 232 -275 0 -274 0 54 -77z"/>
</g>
</svg>
