<svg id="visual" viewBox="0 0 900 600" width="900" height="600" xmlns="http://www.w3.org/2000/svg" xmlns:xlink="http://www.w3.org/1999/xlink" version="1.1"><rect x="0" y="0" width="900" height="600" fill="#a070af"></rect><g transform="translate(54.738227776514094 -102.40482097499324)"><path d="M175 -181.4C245.4 -149.4 333.9 -112 342.1 -61C350.4 -10 278.2 54.5 230.9 130.2C183.5 205.9 160.8 292.8 96.7 354.7C32.6 416.6 -73 453.6 -171.8 434C-270.6 414.5 -362.6 338.5 -412.1 242.8C-461.7 147 -468.7 31.6 -414 -37.3C-359.3 -106.2 -242.9 -128.5 -163.6 -158.9C-84.4 -189.2 -42.2 -227.6 5 -233.6C52.3 -239.6 104.6 -213.3 175 -181.4" fill="#302549"></path></g></svg>